<svg xmlns="http://www.w3.org/2000/svg" viewBox="0 0 930.97 413.45"><title>Asset 3</title><g id="Layer_2" data-name="Layer 2"><g id="Layer_1-2" data-name="Layer 1"><path d="M48.27,29.24c2.23-.13,11.27-.13,27.12-.13a2.62,2.62,0,0,1,0,5.24c-1.57,0-3.8,0-6.81-.13H66.08a2.44,2.44,0,0,0-2.62,2.49c-.4,13.49-.4,27-.26,46.63.13,10.61.13,17.95.13,22a2.62,2.62,0,0,1-5.24,0c0-4.06,0-11.4-.13-22-.13-19.78-.13-33.14.26-46.5.13-1.7-.79-2.62-2.62-2.49-2.62,0-5,0-7.07.13a2.62,2.62,0,1,1-.26-5.24Z" style="fill:#231f20"/><path d="M113.37,29.24c0,8.52-.13,21.48-.26,38.64s-.39,30.26-.39,38.9a2.62,2.62,0,1,1-5.24,0c0-8.12.13-20.56.39-37.59a2.34,2.34,0,0,0-2.75-2.62c-1.57.13-3.41.26-5.37.39s-3.8.13-5.11.26c-1.57,0-2.49,1-2.49,2.75.13,17.16.13,29.74.13,38A2.62,2.62,0,1,1,87,108c0-8.65,0-21.74-.13-39.17s-.13-30.39-.13-39.16a2.62,2.62,0,1,1,5.24,0c0,7.73,0,17.68.13,29.73A2.35,2.35,0,0,0,94.77,62c2.88-.13,7.33-.39,10.61-.52a2.48,2.48,0,0,0,2.49-2.75c.13-12.05.26-21.88.26-29.47a2.62,2.62,0,0,1,5.24,0Z" style="fill:#231f20"/><path d="M128.31,59.5a2.35,2.35,0,0,0,2.62,2.62,2.92,2.92,0,0,1,1-.13c1.57-.13,2.62-.13,3.27-.13a2.62,2.62,0,0,1,.26,5.24c-.66,0-1.71,0-3.41.13-.78,0-1.31.13-2,.13-1.18,0-1.83.92-1.83,2.62,0,3.41,0,7.2.13,11.53.13,5.37.13,8.51.13,9.17v3.41c-.13,2.1-.13,3.93-.13,5.37,0,2.1,0,3.67.13,4.85v-2c0,1.7.4,2.62,1,2.62a41.18,41.18,0,0,0,5.77,0c1.7,0,3.67,0,6.16-.13h3.93a2.62,2.62,0,1,1,0,5.24h-3.93c-2.36.13-4.32.13-6,.13a47.63,47.63,0,0,1-6.16,0,11.17,11.17,0,0,1-2.23-.13c-.13,0-.4-.13-.52-.13a3.53,3.53,0,0,1-1.83-.79,3,3,0,0,1-.92-1.44,8.21,8.21,0,0,1-.26-.92c-.13-.52-.13-1.18-.26-2.1-.13-1.31-.13-3-.13-5.24,0-1.44,0-3.27.13-5.37V90.67c0-.13,0-4.06-.13-11.92s-.13-14.54-.13-20c0-8,.13-14.28.52-18.86a63.43,63.43,0,0,1,.66-6.68c.13-1.7.65-3.67,2.09-4.58a10.57,10.57,0,0,1,5-.92c3.27-.13,7.59-.13,12.84.13,2.49.13,4.06.26,4.58.26a2.62,2.62,0,1,1,0,5.24c-.52,0-2.09-.13-4.72-.26-5.37-.26-9.43-.26-12.44-.13h-1c-.65,0-1.18,1.18-1.18,1.18a46.29,46.29,0,0,0-.66,6c-.26,4.58-.39,10.74-.39,18.6Z" style="fill:#231f20"/><path d="M20.66,252.66v-114H0v-19H58.8q24.37,0,37.54,2.51a64.46,64.46,0,0,1,25.52,11.37q12.35,8.85,19.73,24.32T149,193.09q0,22.52-7.1,39.13T123.24,257A71.09,71.09,0,0,1,95.8,268.46q-15.9,3.22-40.5,3.22H0v-19Zm23,0h12q20.11,0,31.86-2.51a50.07,50.07,0,0,0,19.84-8.58q8.09-6.07,13.12-18.31t5-28.86q0-19.78-8.25-33.56t-21.09-18q-12.85-4.21-39.51-4.21h-13Z" style="fill:#231f20"/><path d="M147,375.28V301H134.86V288.65h33q13.6,0,20.39,1.64t12,8.29a24.66,24.66,0,0,1,5.2,15.62,25.14,25.14,0,0,1-3.1,12.46,19.87,19.87,0,0,1-9.08,8.4,24.4,24.4,0,0,1,12.71,9.43,26.27,26.27,0,0,1,4.45,15.06,27,27,0,0,1-3.31,13.31,24.11,24.11,0,0,1-8.79,9.25,34.88,34.88,0,0,1-12,4.41,108.32,108.32,0,0,1-17.76,1.14H134.86V375.28ZM162,329.87h9.33q10.68,0,14.91-3.74t4.24-11q0-14.09-19.15-14.09H162Zm0,45.42h5.62q11,0,16.16-1.1a14.15,14.15,0,0,0,8.36-5.2,16.41,16.41,0,0,0,3.24-10.5,15.38,15.38,0,0,0-3.1-9.79,14.77,14.77,0,0,0-8-5.27,55.63,55.63,0,0,0-13.77-1.32H162Z" style="fill:#231f20"/><path d="M403.79,385.46V311.38H391V299h40.41v12.36H419.27v74.07h30.25V351.86h13.92v45.95H391V385.46Z" style="fill:#231f20"/><path d="M485.17,352.83V278.75H472.39V266.39H512.8v12.36H500.65v74.07h30.25V319.23h13.92v45.95H472.39V352.83Z" style="fill:#231f20"/><path d="M550.59,302q0-21.52,14.06-36t36.65-14.49q22.8,0,37.14,14.49t14.35,36.29q0,22.23-14.59,36.68t-37.11,14.45a52.39,52.39,0,0,1-26.38-6.85,43.86,43.86,0,0,1-18.07-19.1A56.93,56.93,0,0,1,550.59,302Zm16.26.07q0,16.26,9.52,27.27t25,11q15.34,0,25.21-11.26a39.4,39.4,0,0,0,9.87-26.88q0-15.77-10-26.67a32.89,32.89,0,0,0-25.25-10.9q-15.13,0-24.71,10.72T566.85,302.08Z" style="fill:#231f20"/><path d="M744.54,300l12.85,7.17q-4.33,16.48-17.51,25.53a52.18,52.18,0,0,1-30.29,9.06q-22.44,0-36-14.56t-13.56-36q0-23.51,13.64-37.43t35.58-13.92q19.39,0,32.6,10.58v-9h12.78v31.75H741.84a32,32,0,0,0-13.14-14.95A35.94,35.94,0,0,0,710,252.9q-14.77,0-24.25,10.65t-9.48,26.92q0,16.69,10.16,27.27t24.08,10.58A32.92,32.92,0,0,0,731.33,321Q740.7,313.62,744.54,300Z" style="fill:#231f20"/><path d="M776.28,352.08V278H763.92V265.65h40V278H791.19v74.07h11.36v12.36H763.92V352.08Zm15.41-39.81L823.36,278H812.07V265.65h38.71V278H840.27l-30.42,34.27,31.27,39.81H851.7v12.36H811.58V352.08h10.65Z" style="fill:#231f20"/><path d="M863.35,387.56V351.69h12.36v8.74q8.88,16.12,23.22,16.12a18,18,0,0,0,12.36-4.47,14.92,14.92,0,0,0,5-11.72q0-7-4.12-10.12t-15.55-6.14q-13.28-3.55-19.67-6.71a25.23,25.23,0,0,1-10.19-9,25,25,0,0,1-3.8-13.88q0-12.43,8.27-19.85T892,287.21a35.79,35.79,0,0,1,22,7.67v-6.6h12.07v30H914.06v-6.89q-7.6-11.43-21-11.43-8.1,0-12.43,3.73a11.39,11.39,0,0,0-4.33,8.91,11.55,11.55,0,0,0,2.2,7,13,13,0,0,0,5.61,4.44,116.73,116.73,0,0,0,13.43,4q13.07,3.4,19,6.35a25.61,25.61,0,0,1,10.15,9.84A29.5,29.5,0,0,1,931,360a27.21,27.21,0,0,1-8.91,20.89q-8.91,8.24-22.05,8.24-13.49,0-24.29-9.73v8.17Z" style="fill:#231f20"/><path d="M595.66,171.86h53.48c.07,1.9.11,3.59.11,5.07q0,31-20.29,49.57t-53.58,18.6q-39.85,0-59.4-22.67t-19.55-53.64q0-32.44,20-53.9t54.22-21.46q30.76,0,51.58,18.71V95.76h18.71v48.3H622.19q-5.29-12.15-18.76-21.61A52.31,52.31,0,0,0,572.62,113q-24.1,0-38,16.28t-14,39.21q0,26.32,15.91,41.75a55.13,55.13,0,0,0,69.6,5.65q13.73-9.77,16.06-25.63H595.66Z" style="fill:#231f20"/><path d="M660.37,98.5v-26h26V95q0,11.63-1.8,18a18.42,18.42,0,0,1-7.66,10.36q-5.87,4-16.54,4.44v-11.1q12.68-1.9,12.68-15.64c0-.56,0-1.41-.11-2.54Z" style="fill:#231f20"/><path d="M359.33,276.14Q336.8,253.39,301,253.39q-35.47,0-57.55,22.75t-22.08,56.55a89.4,89.4,0,0,0,9.48,40,68.89,68.89,0,0,0,28.39,30,82.28,82.28,0,0,0,41.44,10.76q35.36,0,58.28-22.7t22.92-57.61Q381.86,298.9,359.33,276.14ZM301.61,394.84A61.42,61.42,0,1,1,363,333.42,61.42,61.42,0,0,1,301.61,394.84Z"/><path d="M700.87,224.06V170.69h18.39v13q13.21,24,34.56,24A26.72,26.72,0,0,0,772.21,201q7.5-6.66,7.5-17.44,0-10.46-6.13-15.06t-23.15-9.14q-19.76-5.28-29.28-10A37.54,37.54,0,0,1,706,136q-5.65-8.72-5.65-20.66,0-18.49,12.31-29.54t30.91-11q17.65,0,32.76,11.41V76.31h18v44.6h-18V110.66q-11.31-17-31.18-17-12,0-18.5,5.55t-6.45,13.26a17.2,17.2,0,0,0,3.28,10.41,19.38,19.38,0,0,0,8.35,6.61q5.07,2.12,20,5.91,19.45,5.06,28.22,9.45t15.11,14.64A43.89,43.89,0,0,1,801.48,183q0,18.82-13.26,31.08T755.4,226.39q-20.08,0-36.15-14.48v12.15Z" style="fill:#231f20"/><path d="M151.61,170.81q0-63.17,41.28-105.7T300.46,22.59q66.92,0,109,42.53T451.6,171.65q0,65.25-42.84,107.68T299.83,321.75q-42.11,0-77.45-20.12a128.75,128.75,0,0,1-53.06-56.08A167.1,167.1,0,0,1,151.61,170.81Zm47.74.21q0,47.74,27.94,80.05t73.38,32.31q45,0,74-33t29-78.91q0-46.28-29.5-78.28T300,61.16q-44.41,0-72.55,31.48T199.35,171Z" style="fill:#231f20"/><circle cx="301.61" cy="172.17" r="122.94" style="fill:#fff"/><path d="M253,290.52" style="fill:#010101"/><path d="M168.88,132.76s-2.7,11.49-2.9,11.29l-2.9,33.17L138.21,194.9l28.67,11s15.79,38.66,15.49,38.66-11.49,33-11.49,33l30-8.69,35.37,27.37,7.19,2.6.8,14.89c-.3.3,2.08,23,2.08,23l1.41,6.55c-.05-.25,7.45-10.8,6.71-9.83s13.68-12.57,14.28-14c.76-1.81,7.29-10.49,5.2-10.79s6.17-2,4.8,0,19.48,1.8,19.48,1.8,21-3.16,20.08-2.78,9.59-1.42,9.59-1.42l8.69,11.09" style="fill:#fdfcef"/><path d="M327.83,306.2S356,337.33,354,338.35s2.7-24.88,2.7-24.88l2.4-18s4.5-3,3-2.7,25.78-18,25.78-18h9.89s15.59-.6,14.39,0,7.79-.27,7.79-.27,5.1-.87,4.2,0,11.39,4.76,11.39,4.76-1.5-10.79-2.1-10.79,14.69-9.59,13.49-9.59,24,7.79,24,7.79,10.79-6.29,10.79-5.69,10.79-9,9.89-9,7.79-14.69,7.79-14.69l8.09-24.88s3.6-21.58,2.4-21.58-5.69-18.26-5.69-18.26l-11.39-13.81s-2.4-7-2.4-6.39-1-10-1-10l-3.3-8.76-3.9-7.81-1.38,5.88-2.59-3.27-8.82-11.62,3.2-5.89L460,87.58l-8.89-6.89L434.5,70l9.29-8.19s7.09,8.59,7.59,8.59,3.7-2.7,3.7-2.7l4-8,.3-13.09-3.7-10.79-5.79-18.38s-9.39-2.8-9.69-2.8S425,7.05,425,7.05L412.82,1.16l-20.28,5.2-17.48,4.9L357,17.54l-33.27.7-23-3.8-19.38-.5-10.89,4.5L244,30.33s-7.69,6.19-8.19,6.19-6.09-.5-6.49-.5-16-.7-16-.7-10.79,2.8-11.29,2.8-13.14,9.07-13.14,9.07-10,1.62-10.43,1.62-12.09,4.5-12.09,4.5L155.86,61.6,145.67,77.79l-4.6,13.39-1.7,15L140,118l2,7.19s19.76-10.06,20.26-10,13.19-12.22,13.19-12.22l5.1-7.89s8.59-12.79,8.59-13.29,4.2-6.29,4.2-6.29,3.6-2,4-1.8,2.1,5.1,2.1,5.1l-2.2,2.9s-14.8,20.5-15,20.75a54.29,54.29,0,0,1-5.78.93l-5,4.5L161,118.32l-3.1,1.5,5.28,7.49" style="fill:#fdfcef"/><path d="M347.31,289.52c2.19.8,32.79-15.77,34.17-15s2,3.39,2,3.39l-17.79,12.2-6,5.13-15-2.74-11.19,5.3-5.79,3.9.1,4.5-16.55,2.27L290,309.3H275.38s-3-6-2.2-6.59-2.6-4.9-2.6-4.9l-5.59-2.5-9.59-2.2-7.39,2-3.8,3.6-16.32-8.94-15.26-10-11.79-10.89,5.39-5.79v-9.19l-5.39-7.49L193,240.76l-6.49.7-3.7,2.2s-6-8.89-5.69-8.79-8.31-24.37-8.27-24.27-1.52-5.9-1.82-5.9,5.89,1.3,5.89,1.3l3.6-1.9,3.1-6.79s-1.7-14.29-1.4-14.29-6.49-7.39-6.49-7.39l-8.53.88s3.18-33.41,3.25-33.7,2.39-9.64,2.33-9.43,7.94,0,7.94,0l6.59-6.8,4-8.79-1-10.19L181,104l18.28-21.48,9.49,4.6-18.38,50.25-5.89,41.36,12.89,43.86,25.48,41L250.6,286Z" style="fill:#9f1c20"/><path d="M304.05,94.5l-.9,10.19L307,112l9.09,3.4,17.78-3.6s6-5.89,6.19-6.19,2.5-7.59,2.5-7.59l-21.48-3.1Z" style="fill:#9e1d21"/><path d="M414.75,78.31c-.5,0-3.7,7.49-3.7,7.49l7.59,4.7,9.79.8,5.39-6.49,1-7.39s-1.7-4.1-2.8-4.6a24.64,24.64,0,0,0-6.39-1.7c-1.9-.1-6.69,3.2-6.69,3.2Z" style="fill:#9e1d21"/><path d="M492.33,151.81c-.33-8.29-5.06-22.1-12.09-29.19.17,2.48.31,4.63.4,6.6-2.61-3.76-6.12-9-5.78-11.06C478.58,94.82,446.69,71,440.78,69.9a20.13,20.13,0,0,0,3.55-4.56c.51.76,6,8.58,6.71,8.1,18.93-12.59,6.55-39.07,1.27-57.15-.21-.74-.92-1.69-1.77-1.66C435.83,15.22,424.4,4,415.66.73S395.74,6.09,385,8a52.72,52.72,0,0,0-17.44,3.72c-7.78,3-11,5.42-27.87,5.87-9,.24-18.57.07-27.49-1.54-29.06-10.91-34.72-.83-60,9.25-6.27,2.5-13.23,5-18.45,9.28-19.21-7.08-42.42,7.31-45,9.86-4,2.22-13.87,2.52-20.37,5.22-14.32,5.95-27.4,26.7-29.81,51.33h-.19l.17.21a81.69,81.69,0,0,0,1.31,24.46c.15.71,1,1.73,1.78,1.66A35.81,35.81,0,0,0,156,122.7c1.17,1.17,3.62,3.64,3.38,3.51,2.65,3,5.06,5.55,6.8,7.15a141.67,141.67,0,0,0-5.5,43.11c-8.83,4.7-19.54,13.1-27.16,19.37,8.74,3.17,22,7.87,31.12,10.42a140.12,140.12,0,0,0,15.91,38.86c-5.08,8.47-10.47,26.19-13.22,36.24,9.27-3,23.07-7.54,32.29-11.25a137.29,137.29,0,0,0,42.63,30.19c-2.38,9.91,4.47,38.09,5.94,45.4.91-1.17,23.55-27.68,27.36-35.32a135,135,0,0,0,52.61-1.8c4.61,8.54,20.64,27.53,27,34.86.9-5.65.24.25,5.53-47.3C365.23,293,383,283.2,386.91,279.2a8.34,8.34,0,0,1,3.92-1.67c9,2.44,20.51,2.12,29.19.17,7.31,1.08,5.83,1.32,21.83,6.44-1.45-3.73-2.79-7.21-5.3-13.29,2.74-1.55,7.85-4.2,7.85-4.2,6.63,4.81,30.95,16.7,53.35-17.48,7.63-11.65,12.7-28,14-42C514.46,179.53,509.08,180.62,492.33,151.81Zm-31.11,25.4c15-11.5,23.74-29.57,21-49.65,4.14,6.49,10,21.78,5.61,39.82-1.25,5.1-2.55,13.13-9.74,21-1.77-.83-8.46-4.1-12-5.12,5-3.11,11.9-9.79,16.58-24C482.69,159.29,471.43,175.32,461.22,177.22Zm19.49-43.33c-.12,4.74.38,12.25-4.49,17.68-6.88-3.18-17-11.67-21.45-19.5,1.13,7.51,4.78,17.8,9.54,24.25a38.53,38.53,0,0,0-12.61-6c5,4.3,10.19,9,13.13,15a73.4,73.4,0,0,1-7.79,8.07,42.88,42.88,0,0,0-5.8-6.92,43.91,43.91,0,0,1-12.46,14.78,114.68,114.68,0,0,1-11.71-17.07c-.45-.3-3.74,6.32-4.1,6.67-.58-.79,3.35-22.37-2.48-29.72,3.75-2.13,17.78-11,16.4-20.92,5.46-.17,18.71,4.86,21.1,9.47a59.54,59.54,0,0,0-20.76-23.57C449,108.85,467.31,114.77,480.7,133.89Zm-35.5,47s4-7.17,5.63-10.65c1.78,1.08,6.34,9.58,6.82,11.15.58,1.91-7.59,1.84-9,.69.8-.3,1.82-8,1.82-8Zm-24.84,1.37c2.16-4.28,5-10.18,6.78-13.57.23-1.26,4.24,8,7.33,12.67-1.89,1.29-8,2.85-9.14.9.62-1.67,2-8.78,2-8.78S422.15,179.44,420.35,182.28Zm-2.43-46.68c-4.85-2.32-2.42-13-6.45-16.66-2.39,6.75.36,16.63-3.38,18.8-3.41-5.68-6-21-18.46-16.13,16.14,7.82,5.85,15.58,2.72,16-9.8-3.56-13.56-14.3-14.35-18.31,1.88-4.32,11.53-22.24,42.9-14.88-13.31-1.35-29,2.73-29.76,6.87,9.38-4.78,19.49-5.74,31.3-3.93A19.19,19.19,0,0,1,432,111c2.12,4.64.53,17.59-4.57,20-6-2.22-6.92-12.4-1.74-16.13C415.41,112.92,418.75,132.87,417.92,135.6ZM397,184.37c1.41-2.68,5.05-8.56,5.7-10.06,2,2.45,4.13,7.61,5.38,9.38a10.27,10.27,0,0,1-7.56,2.28c.45-1.14,2.32-9.3,2.32-9.3S398.23,182.87,397,184.37Zm5.07-13.77C400,176,395.66,181,392.4,185.82c-7.5-4.44-15.55-10.29-20.56-17.39a44.46,44.46,0,0,0-6.32,21.66c-.81-.06-1.6-.11-2.36-.15A67.74,67.74,0,0,1,346.44,177c4-10.81,9.91-16.76,19.8-23.31-4.84,2.62-10.14,4.12-14.66,7.58-4.12,3.15-6.17,7.49-9.54,11A93,93,0,0,1,327,146c12.05-.08,26.74-1.78,47.72-13.16,1.19,5,20.57,11.43,38.35,13.31,4.25,11.08,2.42,26.51-1.62,31.15C410.29,175.74,403.35,172.05,402.09,170.6Zm-32.53,21.23c-2.2-5.54-.82-14.47,2.85-19.81,4,5.23,8.63,11.25,14,15-2.51,4.88-12.6,5.9-13.3,5.48,0,0-1.88-11.28-.92-17C368.93,181,369.15,187.93,369.56,191.82ZM341.75,212.5c-8.52-4.79-18.91-19.82-18.12-49.95a53,53,0,0,1,2.25-15.07c8.31,23.54,20.16,37,37.4,47.88,1.93,4.08-4.47,9.57-11.34,13.26-5-2.27-21.34-12.08-25.58-44.76C324.28,177.9,329.47,199.47,341.75,212.5ZM306,170.58a25.67,25.67,0,0,1,7.47,5.18c2.89,2.19.7,5.71.16,6.92-2,4.63-5.59,6.89-7.77,12.26-3.77-6.27-9.19-13.05-9.3-20.7,1.31,4.18,3.51,7.72,8,15.46C303.17,183.32,303,176.33,306,170.58Zm2.26,40.11a2.52,2.52,0,0,1-1.14-2.93c.49-2.13,2.54-14.87,10.79-23.39.93,4.81,11.29,22.69,13.34,26.38A19.18,19.18,0,0,1,317,214.38a30.32,30.32,0,0,1,.83-23.86A29.49,29.49,0,0,0,308.23,210.69ZM303,200.08c.79,2.46.73,7.56-1.67,8.62-3.87,1.71-8.4-1.09-11.32-5.15a47,47,0,0,1,2.68-18.4,24,24,0,0,0-4.12,4c1.12-3,2.55-6.13,3.5-8.89C296.07,187.28,300.25,191.44,303,200.08ZM288.6,211c4.22,5.79,8.09,5.34,9.39,3.59-1.22,3.39,4.38,11.22,5.1,12.06C290.62,226.64,287.65,218.81,288.6,211Zm21.63,31.75a19.09,19.09,0,0,1-11.33,7.66c-13.43,3.61-18.21-11.7-17.69-24.62C282.72,243.17,297.7,248,310.23,242.74Zm-5.56-28.88c7.35,6.31,17.56,7.37,27,2.13-1.47,4.69-9.06,8-12.51,9.15C309.63,228.33,303.06,220.78,304.67,213.86ZM421.84,88.56c-6.28-1.79-7.38-.34-8.77-4.3a44.28,44.28,0,0,0,11-10.57C431.7,72.56,431.57,88.1,421.84,88.56Zm46.42,23.75c-8.53-6.82-24.75-15.72-35-19.45,2.14-1,7.72-7.68,5-11.76C438.93,81.32,457.83,78,468.25,112.31ZM419.68,5.7c9.48,5.36,17.47,14.81,28.67,14.88,3.57,11.75,15.7,32.33,4.5,47.72a70.5,70.5,0,0,1-6.69-6.23c5.7-11.48,1.63-22.08-12.07-30,.72-20.53-16.55-22.7-24.45-25.13,5.41,1.67,12.81,7.73,15.77,12.55-1.64-1.42-5.19-.72-9.08-2.88a60.56,60.56,0,0,0-23.13-7.68C410,3.42,410.22.34,419.68,5.7ZM141.8,121.6C135.12,85,155.6,54.92,175,51.46c1.62-.29,4.09-.46,6.59-.88-2,2.41-6.44,11.78-9.15,11.48,10.87,1.21,16.55-14.72,27.2-20.5,14.06-7.62,23.27-2.83,31.3-3.44-2.67,3-6.71,7.8-8.88,11.89-19.39-9.88-20-.08-31.76,16,4.39-3.36,8.56-4.85,9.2-3.68C189.77,74,167.91,118,141.8,121.6Zm40-21.72-4.34,2.47A233.25,233.25,0,0,0,195.68,75a17.18,17.18,0,0,1,2.42,1.95C190.59,85,190.71,85.63,181.8,99.88Zm-1,26.64L164,117A89.57,89.57,0,0,0,176,104.29a23,23,0,0,1,6.89,3.72C187.83,111.9,185.26,120.76,180.78,126.52Zm-21.44-5.88.54-.39L173.23,132a4.32,4.32,0,0,1-3.48-.9C168.36,129.95,162.79,124.36,159.34,120.64Zm-18.12,73.89c4.54-3.6,22.37-17.24,28.08-17.24,4.88,0,7.54,6.85,8,13.61l-31.58,3.81L174,203.35C172.52,204.42,171.25,205.18,141.21,194.53ZM175.63,273l22.88-6.67c-8.15,3.29-21.18,7.63-25.4,9,1.6-5.47,8.77-28.71,13.6-31.72,5-3.12,12.38,2.37,16.46,8.49Zm68.7,23.13a132.57,132.57,0,0,1-40.12-28c14.08-8.84-8.8-38-20.59-27a137.56,137.56,0,0,1-13.85-33.6,12.72,12.72,0,0,0,2.37.29c14.23,0,11.5-40.24-6.83-33.47a136.67,136.67,0,0,1,5-38.53c12.85,3.48,27.74-25,13.51-31.92,3.79-6.49,9.54-13,14.31-18.73-.55,5.82-4.47,12.34-6.5,18.08C195,96.67,200.55,92.81,205.49,88,170.62,138.24,174,206.72,213,253c.51,11.11,12.32,31.06,36.84,39.07A12.26,12.26,0,0,0,244.33,296.14Zm5.49,43.29c-1.28-6.69-5.91-33.2-3-39.23s10.88-5.75,17-3.25l-12.51,38.69,21-30.66C272.7,307.26,273.61,308.24,249.82,339.43Zm76.41-35.17a129.78,129.78,0,0,1-49.63,1.57,11.41,11.41,0,0,0-3.53-7.72,74.85,74.85,0,0,0,16.61-.23s1.3-.42,3.34-1a120.78,120.78,0,0,0,38.81-1.54C324.61,298.87,325.22,301.32,326.23,304.27Zm26.12,29.61c-4.71-5.44-21.38-25.21-22.45-32.24,1-1.41,6.4-4,12.31-5.56l9.5,31.84,4-31.52C356.78,303,353.3,327.46,352.35,333.87Zm5.73-41.46c-2.35-2-6.21-2.11-9.3-1.84,11.39-4.11,23.11-6.93,34.64-15.69A132.62,132.62,0,0,1,358.08,292.41Zm70.5-17.4q2.17-.89,4.26-2c.62,1.52,1.22,3,1.75,4.29C433.94,277.08,431.64,276.21,428.58,275Zm41.64-10.9s17.63-10.75,14.65-28.67c-2.86,7.3-25.1,39.71-28.15,18.65-.62-4.3,7.15-13.87,11.71-16.66-18.86,5.3-29.4,32-53.13,30.27,7.5-3.59,10.14-13.23,10.34-15.05-5.55,5.26-23.23,21.45-48,12.68-7.59-2.69-11.5-10.52,2.1-25.63-20.21,9.64-29.33,33.77-47,33.3,10.3-16.73,29.77-50.47,50.69-51.37-17.66.34-39,10.89-50.26,23.7-19.06,21.71-18.26,27.06-37,32.64-14.19,4.23-23.67,3.92-35.65-4.5-14.82-10.41-23.07-23.19-22.78-34.33.49-18.64,9.24-39.68,21.16-51.26-12.44,7.24-28.16,22.33-32.53,36.3-8.36,26.7,13.23,44.91,15.35,47.68-13.41-8.76-20.4-15.39-23.46-30.85-2.08-10.48,0-44,10.15-59.86-12.52,13.11-19.34,26.93-20.79,33.73,0,0-12.89-6.33-17-19.13-11.82-36.57,7.13-47.5,15.54-61.58-1.28,6.33,0,24.63,10,35.8-13-14.53,4.26-91.41,5.92-96.29,7.08-20.79,13.43-38.09,32.7-45.75,27.73-11,27.08-19.41,57.16-7.22a160.45,160.45,0,0,0,28.17,8.21c-2.74-.51-8.83-6.26-11.61-7.59,38.75,1,34.54-8,54.09-9.57,11.51-.93,22.59,2.91,31.52,7.76-6.61-1.41-14.1.12-18.07,5.66,15.06-6.66,32.44,6.36,31.35,6.48-18.55,2.15-15.25,15.17-16.16,16.8.79-1.4,17.7-15.49,27.58-8.35,8.23,6,7.82,7.88,3.63,17.34-4-1.69-9.59-1.28-13.56,0,.52-.45-.17-5.51.44-5.89-13.15,8.29-15.54,27.88-29.56,24.13-11.55-3.09-12-9.81-9.9-20.95,1.1-5.83,3.36-14.77,5.55-19.06-1.83,2.11-4.41,4.69-6.8,7.4-3.9,4.42-9.85-1.83-6.88-6.91-6.86,5.12-15.86,5.19-23.95,2.4,7.12,2.69,3.61,13.69-3.64,11.38-13-4.17-28.42-9-29-13,3.46,23.27,68.9,19.17,32.3,51.92C345,100,313.27,78.21,310,70.41a78.76,78.76,0,0,0,7.78,14c-5.63-.29-34-8.6-44.18-1.09,2.14-.55,5,.88,7.07,1.05-8.51,3-19.4,12-23.24,24.51,2-6.49,29.59-18.63,43.29-11.82-.81,11.71-.18,15.27,9.58,19.17,2.33.93-7.19,6.4-8.88,8.25-7.47,0-12.93-6.87-13.35-13.39-3.08,9.37-.53,19.42,4.42,23.24,0,0-17.13,21.48-28.73,20.9,18.65,2.81,25.48-6.92,34.23-14.93,10.84-9.93,8-15,55.42-30.55,0,0,4.39-17.61,28.22-23,21-4.77,33.2,5,43.08,13.56a37.8,37.8,0,0,0-13.3-1.53c-50.45,3.61-67.25,32.67-67.25,32.67a97.75,97.75,0,0,1,19.5-3.32c-13.67,12.89-45.8,7.65-64.34,19.67,8.15-2.62,16-1.85,25.31-1.77-2.34,7-3.52,11.37-4,19-5.43-2.81-2.78-12.58-2.78-12.58-2.85.15-17.75,9.32-22.61,14.94-21.12,24.4-22.19,64.44-14.55,82,6.8,15.65,18.45,16.44,28.09,4.23,5-6.29,9.43-11.44,14.33-17.74,7-9,23.31-18.83,46.59-31.91,13.65-7.67,93.71-33.74,122.68,10.58a41.32,41.32,0,0,0-9.18-21.3c.8-1.88,2.16-5.23,3.59-9.43,9.45,12.77,12.46,39.36,7.35,45.18,6.86-7.23,9.93-31.21-3.25-60,.51-2.47.92-5,1.19-7.49,3.68,4.19,14.12,17,14.84,30.22C508,212.13,498.37,252.18,470.21,264.12ZM337.73,98.9s-2.54,6.5-5.33,8.85c-2.08.47-11.53,3.4-13.76,4.4-4.15,1-9.91-2.61-12-5.22-2.63-3.35-1.13-10.5-1.13-10.5C324.86,100.38,327.63,98,337.73,98.9Z" style="fill:#010101"/><path d="M206.24,261.34" style="fill:#fff"/><line x1="355.13" y1="325.38" x2="348.21" y2="296.95" style="fill:#fdfcef"/></g></g></svg>