<svg xmlns="http://www.w3.org/2000/svg" viewBox="0 0 930.97 390.86"><title>Asset 5</title><g id="Layer_2" data-name="Layer 2"><g id="Layer_1-2" data-name="Layer 1"><path d="M48.27,6.65c2.23-.13,11.27-.13,27.12-.13a2.62,2.62,0,0,1,0,5.24c-1.57,0-3.8,0-6.81-.13H66.08a2.44,2.44,0,0,0-2.62,2.49c-.4,13.49-.4,27-.26,46.63.13,10.61.13,17.95.13,22a2.62,2.62,0,0,1-5.24,0c0-4.06,0-11.4-.13-22-.13-19.78-.13-33.14.26-46.5.13-1.7-.79-2.62-2.62-2.49-2.62,0-5,0-7.07.13a2.62,2.62,0,1,1-.26-5.24Z" style="fill:#231f20"/><path d="M113.37,6.65c0,8.52-.13,21.48-.26,38.64s-.39,30.26-.39,38.9a2.62,2.62,0,1,1-5.24,0c0-8.12.13-20.56.39-37.59A2.34,2.34,0,0,0,105.12,44c-1.57.13-3.41.26-5.37.39s-3.8.13-5.11.26c-1.57,0-2.49,1-2.49,2.75.13,17.16.13,29.74.13,38a2.62,2.62,0,1,1-5.24,0c0-8.65,0-21.74-.13-39.17S86.78,15.82,86.78,7A2.62,2.62,0,1,1,92,7c0,7.73,0,17.68.13,29.73a2.35,2.35,0,0,0,2.62,2.62c2.88-.13,7.33-.39,10.61-.52a2.48,2.48,0,0,0,2.49-2.75c.13-12.05.26-21.88.26-29.47a2.62,2.62,0,0,1,5.24,0Z" style="fill:#231f20"/><path d="M128.31,36.91a2.35,2.35,0,0,0,2.62,2.62,2.92,2.92,0,0,1,1-.13c1.57-.13,2.62-.13,3.27-.13a2.62,2.62,0,0,1,.26,5.24c-.66,0-1.71,0-3.41.13-.78,0-1.31.13-2,.13-1.18,0-1.83.92-1.83,2.62,0,3.41,0,7.2.13,11.53.13,5.37.13,8.51.13,9.17v3.41c-.13,2.1-.13,3.93-.13,5.37,0,2.1,0,3.67.13,4.85v-2c0,1.7.4,2.62,1,2.62a41.18,41.18,0,0,0,5.77,0c1.7,0,3.67,0,6.16-.13h3.93a2.62,2.62,0,1,1,0,5.24h-3.93c-2.36.13-4.32.13-6,.13a47.63,47.63,0,0,1-6.16,0,11.17,11.17,0,0,1-2.23-.13c-.13,0-.4-.13-.52-.13a3.53,3.53,0,0,1-1.83-.79,3,3,0,0,1-.92-1.44,8.21,8.21,0,0,1-.26-.92c-.13-.52-.13-1.18-.26-2.1-.13-1.31-.13-3-.13-5.24,0-1.44,0-3.27.13-5.37V68.09c0-.13,0-4.06-.13-11.92s-.13-14.54-.13-20c0-8,.13-14.28.52-18.86a63.43,63.43,0,0,1,.66-6.68c.13-1.7.65-3.67,2.09-4.58a10.57,10.57,0,0,1,5-.92c3.27-.13,7.59-.13,12.84.13,2.49.13,4.06.26,4.58.26a2.62,2.62,0,1,1,0,5.24c-.52,0-2.09-.13-4.72-.26-5.37-.26-9.43-.26-12.44-.13h-1c-.65,0-1.18,1.18-1.18,1.18a46.29,46.29,0,0,0-.66,6c-.26,4.58-.39,10.74-.39,18.6Z" style="fill:#231f20"/><path d="M20.66,230.07v-114H0v-19H58.8q24.37,0,37.54,2.51a64.46,64.46,0,0,1,25.52,11.37q12.35,8.85,19.73,24.32T149,170.5q0,22.52-7.1,39.13t-18.64,24.81A71.09,71.09,0,0,1,95.8,245.87q-15.9,3.22-40.5,3.22H0v-19Zm23,0h12q20.11,0,31.86-2.51A50.07,50.07,0,0,0,107.33,219q8.09-6.07,13.12-18.31t5-28.86q0-19.78-8.25-33.56t-21.09-18q-12.85-4.21-39.51-4.21h-13Z" style="fill:#231f20"/><path d="M147,352.7V278.45H134.86V266.07h33q13.6,0,20.39,1.64t12,8.29a24.66,24.66,0,0,1,5.2,15.62,25.14,25.14,0,0,1-3.1,12.46,19.87,19.87,0,0,1-9.08,8.4,24.4,24.4,0,0,1,12.71,9.43A26.27,26.27,0,0,1,210.38,337a27,27,0,0,1-3.31,13.31,24.11,24.11,0,0,1-8.79,9.25,34.88,34.88,0,0,1-12,4.41,108.32,108.32,0,0,1-17.76,1.14H134.86V352.7ZM162,307.28h9.33q10.68,0,14.91-3.74t4.24-11q0-14.09-19.15-14.09H162Zm0,45.42h5.62q11,0,16.16-1.1a14.15,14.15,0,0,0,8.36-5.2,16.41,16.41,0,0,0,3.24-10.5,15.38,15.38,0,0,0-3.1-9.79,14.77,14.77,0,0,0-8-5.27,55.63,55.63,0,0,0-13.77-1.32H162Z" style="fill:#231f20"/><path d="M403.79,362.87V288.79H391V276.44h40.41v12.36H419.27v74.07h30.25V329.28h13.92v45.95H391V362.87Z" style="fill:#231f20"/><path d="M485.17,330.24V256.16H472.39V243.8H512.8v12.36H500.65v74.07h30.25V296.64h13.92v45.95H472.39V330.24Z" style="fill:#231f20"/><path d="M550.59,279.42q0-21.52,14.06-36t36.65-14.49q22.8,0,37.14,14.49t14.35,36.29q0,22.23-14.59,36.68t-37.11,14.45A52.39,52.39,0,0,1,574.7,324a43.86,43.86,0,0,1-18.07-19.1A56.93,56.93,0,0,1,550.59,279.42Zm16.26.07q0,16.26,9.52,27.27t25,11q15.34,0,25.21-11.26a39.4,39.4,0,0,0,9.87-26.88q0-15.77-10-26.67a32.89,32.89,0,0,0-25.25-10.9q-15.13,0-24.71,10.72T566.85,279.49Z" style="fill:#231f20"/><path d="M744.54,277.4l12.85,7.17Q753.06,301,739.88,310.1a52.18,52.18,0,0,1-30.29,9.06q-22.44,0-36-14.56t-13.56-36q0-23.51,13.64-37.43t35.58-13.92q19.39,0,32.6,10.58v-9h12.78v31.75H741.84A32,32,0,0,0,728.7,235.6,35.94,35.94,0,0,0,710,230.31q-14.77,0-24.25,10.65t-9.48,26.92q0,16.69,10.16,27.27t24.08,10.58a32.92,32.92,0,0,0,20.81-7.35Q740.7,291,744.54,277.4Z" style="fill:#231f20"/><path d="M776.28,329.49V255.42H763.92V243.06h40v12.36H791.19v74.07h11.36v12.36H763.92V329.49Zm15.41-39.81,31.67-34.27H812.07V243.06h38.71v12.36H840.27l-30.42,34.27,31.27,39.81H851.7v12.36H811.58V329.49h10.65Z" style="fill:#231f20"/><path d="M863.35,365V329.1h12.36v8.74Q884.59,354,898.94,354a18,18,0,0,0,12.36-4.47,14.92,14.92,0,0,0,5-11.72q0-7-4.12-10.12t-15.55-6.14Q883.38,318,877,314.79a25.23,25.23,0,0,1-10.19-9,25,25,0,0,1-3.8-13.88q0-12.43,8.27-19.85T892,264.62a35.79,35.79,0,0,1,22,7.67v-6.6h12.07v30H914.06v-6.89q-7.6-11.43-21-11.43-8.1,0-12.43,3.73a11.39,11.39,0,0,0-4.33,8.91,11.55,11.55,0,0,0,2.2,7,13,13,0,0,0,5.61,4.44,116.73,116.73,0,0,0,13.43,4q13.07,3.4,19,6.35a25.61,25.61,0,0,1,10.15,9.84A29.5,29.5,0,0,1,931,337.4a27.21,27.21,0,0,1-8.91,20.89q-8.91,8.24-22.05,8.24-13.49,0-24.29-9.73V365Z" style="fill:#231f20"/><path d="M595.66,149.27h53.48c.07,1.9.11,3.59.11,5.07q0,31-20.29,49.57t-53.58,18.6q-39.85,0-59.4-22.67T496.42,146.2q0-32.44,20-53.9t54.22-21.46q30.76,0,51.58,18.71V73.17h18.71v48.3H622.19q-5.29-12.15-18.76-21.61a52.31,52.31,0,0,0-30.81-9.46q-24.1,0-38,16.28t-14,39.21q0,26.32,15.91,41.75a55.13,55.13,0,0,0,69.6,5.65q13.73-9.77,16.06-25.63H595.66Z" style="fill:#231f20"/><path d="M660.37,75.91v-26h26V72.42q0,11.63-1.8,18a18.42,18.42,0,0,1-7.66,10.36q-5.87,4-16.54,4.44V94.09q12.68-1.9,12.68-15.64c0-.56,0-1.41-.11-2.54Z" style="fill:#231f20"/><path d="M359.33,253.56Q336.8,230.8,301,230.8q-35.47,0-57.55,22.75t-22.08,56.55a89.4,89.4,0,0,0,9.48,40,68.89,68.89,0,0,0,28.39,30,82.28,82.28,0,0,0,41.44,10.76q35.36,0,58.28-22.7t22.92-57.61Q381.86,276.31,359.33,253.56ZM301.61,372.25A61.42,61.42,0,1,1,363,310.83,61.42,61.42,0,0,1,301.61,372.25Z"/><path d="M700.87,201.47V148.1h18.39v13q13.21,24,34.56,24a26.72,26.72,0,0,0,18.39-6.66q7.5-6.66,7.5-17.44,0-10.46-6.13-15.06t-23.15-9.14q-19.76-5.28-29.28-10A37.54,37.54,0,0,1,706,113.38q-5.65-8.72-5.65-20.66,0-18.49,12.31-29.54t30.91-11q17.65,0,32.76,11.41V53.72h18v44.6h-18V88.07q-11.31-17-31.18-17-12,0-18.5,5.55t-6.45,13.26a17.2,17.2,0,0,0,3.28,10.41,19.38,19.38,0,0,0,8.35,6.61q5.07,2.12,20,5.91,19.45,5.06,28.22,9.45t15.11,14.64a43.89,43.89,0,0,1,6.34,23.57q0,18.82-13.26,31.08T755.4,203.8q-20.08,0-36.15-14.48v12.15Z" style="fill:#231f20"/><path d="M151.61,148.23q0-63.17,41.28-105.7T300.46,0q66.92,0,109,42.53T451.6,149.06q0,65.25-42.84,107.68T299.83,299.16q-42.11,0-77.45-20.12A128.75,128.75,0,0,1,169.33,223,167.1,167.1,0,0,1,151.61,148.23Zm47.74.21q0,47.74,27.94,80.05t73.38,32.31q45,0,74-33t29-78.91q0-46.28-29.5-78.28T300,38.57q-44.41,0-72.55,31.48T199.35,148.43Z" style="fill:#231f20"/><circle cx="301.61" cy="149.58" r="122.94" style="fill:#fff"/><path d="M253,267.93" style="fill:#010101"/><line x1="355.13" y1="302.79" x2="348.21" y2="274.36" style="fill:#fdfcef"/></g></g></svg>