<svg xmlns="http://www.w3.org/2000/svg" viewBox="0 0 378.9 345.7"><title>Asset 3</title><g id="Layer_2" data-name="Layer 2"><g id="Layer_1-2" data-name="Layer 1"><path d="M18.06,170.81q0-63.17,41.28-105.7T166.91,22.59q66.92,0,109,42.53t42.11,106.53q0,65.25-42.84,107.68T166.28,321.75q-42.11,0-77.45-20.12a128.75,128.75,0,0,1-53.06-56.08A167.1,167.1,0,0,1,18.06,170.81ZM65.8,171q0,47.74,27.94,80.05t73.38,32.31q45,0,74-33t29-78.91q0-46.28-29.5-78.28t-74.11-32q-44.41,0-72.55,31.48T65.8,171Z" style="fill:#231f20"/><circle cx="168.06" cy="172.17" r="122.94" style="fill:#fff"/><path d="M119.45,290.52" style="fill:#010101"/><path d="M35.33,132.76s-2.7,11.49-2.9,11.29l-2.9,33.17L4.66,194.9l28.67,11s15.79,38.66,15.49,38.66-11.49,33-11.49,33l30-8.69,35.37,27.37,7.19,2.6.8,14.89c-.3.3,2.08,23,2.08,23l1.41,6.55c-.05-.25,7.45-10.8,6.71-9.83s13.68-12.57,14.28-14c.76-1.81,7.29-10.49,5.2-10.79s6.17-2,4.8,0,19.48,1.8,19.48,1.8,21-3.16,20.08-2.78,9.59-1.42,9.59-1.42L203,317.29" style="fill:#fdfcef"/><path d="M194.28,306.2s28.19,31.13,26.15,32.15,2.7-24.88,2.7-24.88l2.4-18s4.5-3,3-2.7,25.78-18,25.78-18h9.89s15.59-.6,14.39,0,7.79-.27,7.79-.27,5.1-.87,4.2,0S302,279.3,302,279.3s-1.5-10.79-2.1-10.79,14.69-9.59,13.49-9.59,24,7.79,24,7.79,10.79-6.29,10.79-5.69,10.79-9,9.89-9,7.79-14.69,7.79-14.69l8.09-24.88s3.6-21.58,2.4-21.58-5.69-18.26-5.69-18.26L359.2,158.81s-2.4-7-2.4-6.39-1-10-1-10l-3.3-8.76-3.9-7.81-1.38,5.88-2.59-3.27-8.82-11.62L339,111,326.43,87.58l-8.89-6.89L301,70l9.29-8.19s7.09,8.59,7.59,8.59,3.7-2.7,3.7-2.7l4-8,.3-13.09-3.7-10.79-5.79-18.38s-9.39-2.8-9.69-2.8-15.19-7.59-15.19-7.59L279.27,1.16,259,6.36l-17.48,4.9-18.08,6.29-33.27.7-23-3.8-19.38-.5-10.89,4.5L110.43,30.33s-7.69,6.19-8.19,6.19-6.09-.5-6.49-.5-16-.7-16-.7S69,38.13,68.47,38.13s-13.14,9.07-13.14,9.07-10,1.62-10.43,1.62-12.09,4.5-12.09,4.5L22.31,61.6,12.12,77.79,7.53,91.18l-1.7,15L6.43,118l2,7.19s19.76-10.06,20.26-10,13.19-12.22,13.19-12.22L47,95s8.59-12.79,8.59-13.29,4.2-6.29,4.2-6.29,3.6-2,4-1.8,2.1,5.1,2.1,5.1l-2.2,2.9s-14.8,20.5-15,20.75a54.29,54.29,0,0,1-5.78.93l-5,4.5L27.49,118.32l-3.1,1.5,5.28,7.49" style="fill:#fdfcef"/><path d="M213.76,289.52c2.19.8,32.79-15.77,34.17-15s2,3.39,2,3.39l-17.79,12.2-6,5.13-15-2.74L200,297.81l-5.79,3.9.1,4.5-16.55,2.27-21.32.83H141.83s-3-6-2.2-6.59-2.6-4.9-2.6-4.9l-5.59-2.5-9.59-2.2-7.39,2-3.8,3.6-16.32-8.94-15.26-10L67.3,268.84,72.69,263v-9.19l-5.39-7.49-7.89-5.59-6.49.7-3.7,2.2s-6-8.89-5.69-8.79S35.2,210.5,35.25,210.6s-1.52-5.9-1.82-5.9,5.89,1.3,5.89,1.3l3.6-1.9L46,197.3S44.32,183,44.62,183s-6.49-7.39-6.49-7.39l-8.53.88s3.18-33.41,3.25-33.7,2.39-9.64,2.33-9.43,7.94,0,7.94,0l6.59-6.8,4-8.79-1-10.19-5.3-3.6L65.7,82.51l9.49,4.6L56.81,137.36l-5.89,41.36L63.8,222.58l25.48,41L117.05,286Z" style="fill:#9f1c20"/><path d="M170.5,94.5l-.9,10.19,3.9,7.29,9.09,3.4,17.78-3.6s6-5.89,6.19-6.19,2.5-7.59,2.5-7.59l-21.48-3.1Z" style="fill:#9e1d21"/><path d="M281.2,78.31c-.5,0-3.7,7.49-3.7,7.49l7.59,4.7,9.79.8,5.39-6.49,1-7.39s-1.7-4.1-2.8-4.6a24.64,24.64,0,0,0-6.39-1.7c-1.9-.1-6.69,3.2-6.69,3.2Z" style="fill:#9e1d21"/><path d="M358.78,151.81c-.33-8.29-5.06-22.1-12.09-29.19.17,2.48.31,4.63.4,6.6-2.61-3.76-6.12-9-5.78-11.06C345,94.82,313.14,71,307.23,69.9a20.13,20.13,0,0,0,3.55-4.56c.51.76,6,8.58,6.71,8.1,18.93-12.59,6.55-39.07,1.27-57.15-.21-.74-.92-1.69-1.77-1.66C302.28,15.22,290.85,4,282.11.73S262.19,6.09,251.46,8A52.72,52.72,0,0,0,234,11.67c-7.78,3-11,5.42-27.87,5.87-9,.24-18.57.07-27.49-1.54-29.06-10.91-34.72-.83-60,9.25-6.27,2.5-13.23,5-18.45,9.28-19.21-7.08-42.42,7.31-45,9.86-4,2.22-13.87,2.52-20.37,5.22C20.48,55.56,7.4,76.31,5,100.94H4.79l.17.21a81.69,81.69,0,0,0,1.31,24.46c.15.71,1,1.73,1.78,1.66a35.81,35.81,0,0,0,14.43-4.58c1.17,1.17,3.62,3.64,3.38,3.51,2.65,3,5.06,5.55,6.8,7.15a141.67,141.67,0,0,0-5.5,43.11c-8.83,4.7-19.54,13.1-27.16,19.37,8.74,3.17,22,7.87,31.12,10.42A140.12,140.12,0,0,0,47,245.12c-5.08,8.47-10.47,26.19-13.22,36.24,9.27-3,23.07-7.54,32.29-11.25a137.29,137.29,0,0,0,42.63,30.19c-2.38,9.91,4.47,38.09,5.94,45.4.91-1.17,23.55-27.68,27.36-35.32a135,135,0,0,0,52.61-1.8c4.61,8.54,20.64,27.53,27,34.86.9-5.65.24.25,5.53-47.3,4.54-3.11,22.28-12.93,26.21-16.94a8.34,8.34,0,0,1,3.92-1.67c9,2.44,20.51,2.12,29.19.17,7.31,1.08,5.83,1.32,21.83,6.44-1.45-3.73-2.79-7.21-5.3-13.29,2.74-1.55,7.85-4.2,7.85-4.2,6.63,4.81,30.95,16.7,53.35-17.48,7.63-11.65,12.7-28,14-42C380.91,179.53,375.53,180.62,358.78,151.81Zm-31.11,25.4c15-11.5,23.74-29.57,21-49.65,4.14,6.49,10,21.78,5.61,39.82-1.25,5.1-2.55,13.13-9.74,21-1.77-.83-8.46-4.1-12-5.12,5-3.11,11.9-9.79,16.58-24C349.14,159.29,337.88,175.32,327.67,177.22Zm19.49-43.33c-.12,4.74.38,12.25-4.49,17.68-6.88-3.18-17-11.67-21.45-19.5,1.13,7.51,4.78,17.8,9.54,24.25a38.53,38.53,0,0,0-12.61-6c5,4.3,10.19,9,13.13,15a73.4,73.4,0,0,1-7.79,8.07,42.88,42.88,0,0,0-5.8-6.92,43.91,43.91,0,0,1-12.46,14.78,114.68,114.68,0,0,1-11.71-17.07c-.45-.3-3.74,6.32-4.1,6.67-.58-.79,3.35-22.37-2.48-29.72,3.75-2.13,17.78-11,16.4-20.92,5.46-.17,18.71,4.86,21.1,9.47a59.54,59.54,0,0,0-20.76-23.57C315.46,108.85,333.76,114.77,347.15,133.89Zm-35.5,47s4-7.17,5.63-10.65c1.78,1.08,6.34,9.58,6.82,11.15.58,1.91-7.59,1.84-9,.69.8-.3,1.82-8,1.82-8Zm-24.84,1.37c2.16-4.28,5-10.18,6.78-13.57.23-1.26,4.24,8,7.33,12.67-1.89,1.29-8,2.85-9.14.9.62-1.67,2-8.78,2-8.78S288.6,179.44,286.8,182.28Zm-2.43-46.68c-4.85-2.32-2.42-13-6.45-16.66-2.39,6.75.36,16.63-3.38,18.8-3.41-5.68-6-21-18.46-16.13,16.14,7.82,5.85,15.58,2.72,16-9.8-3.56-13.56-14.3-14.35-18.31C246.33,115,256,97,287.35,104.39c-13.31-1.35-29,2.73-29.76,6.87,9.38-4.78,19.49-5.74,31.3-3.93a19.19,19.19,0,0,1,9.53,3.66c2.12,4.64.53,17.59-4.57,20-6-2.22-6.92-12.4-1.74-16.13C281.86,112.92,285.2,132.87,284.37,135.6Zm-20.9,48.77c1.41-2.68,5.05-8.56,5.7-10.06,2,2.45,4.13,7.61,5.38,9.38A10.27,10.27,0,0,1,267,186c.45-1.14,2.32-9.3,2.32-9.3S264.68,182.87,263.47,184.37Zm5.07-13.77c-2.13,5.38-6.43,10.41-9.69,15.22-7.5-4.44-15.55-10.29-20.56-17.39A44.46,44.46,0,0,0,232,190.1c-.81-.06-1.6-.11-2.36-.15A67.74,67.74,0,0,1,212.89,177c4-10.81,9.91-16.76,19.8-23.31-4.84,2.62-10.14,4.12-14.66,7.58-4.12,3.15-6.17,7.49-9.54,11A93,93,0,0,1,193.45,146c12.05-.08,26.74-1.78,47.72-13.16,1.19,5,20.57,11.43,38.35,13.31,4.25,11.08,2.42,26.51-1.62,31.15C276.74,175.74,269.8,172.05,268.54,170.6ZM236,191.82c-2.2-5.54-.82-14.47,2.85-19.81,4,5.23,8.63,11.25,14,15-2.51,4.88-12.6,5.9-13.3,5.48,0,0-1.88-11.28-.92-17C235.38,181,235.6,187.93,236,191.82ZM208.2,212.5c-8.52-4.79-18.91-19.82-18.12-49.95a53,53,0,0,1,2.25-15.07c8.31,23.54,20.16,37,37.4,47.88,1.93,4.08-4.47,9.57-11.34,13.26-5-2.27-21.34-12.08-25.58-44.76C190.73,177.9,195.92,199.47,208.2,212.5Zm-35.78-41.92a25.67,25.67,0,0,1,7.47,5.18c2.89,2.19.7,5.71.16,6.92-2,4.63-5.59,6.89-7.77,12.26-3.77-6.27-9.19-13.05-9.3-20.7,1.31,4.18,3.51,7.72,8,15.46C169.62,183.32,169.46,176.33,172.42,170.58Zm2.26,40.11a2.52,2.52,0,0,1-1.14-2.93c.49-2.13,2.54-14.87,10.79-23.39.93,4.81,11.29,22.69,13.34,26.38a19.18,19.18,0,0,1-14.24,3.64,30.32,30.32,0,0,1,.83-23.86A29.49,29.49,0,0,0,174.68,210.69Zm-5.22-10.61c.79,2.46.73,7.56-1.67,8.62-3.87,1.71-8.4-1.09-11.32-5.15a47,47,0,0,1,2.68-18.4,24,24,0,0,0-4.12,4c1.12-3,2.55-6.13,3.5-8.89C162.52,187.28,166.7,191.44,169.46,200.08ZM155.05,211c4.22,5.79,8.09,5.34,9.39,3.59-1.22,3.39,4.38,11.22,5.1,12.06C157.07,226.64,154.1,218.81,155.05,211Zm21.63,31.75a19.09,19.09,0,0,1-11.33,7.66c-13.43,3.61-18.21-11.7-17.69-24.62C149.17,243.17,164.15,248,176.68,242.74Zm-5.56-28.88c7.35,6.31,17.56,7.37,27,2.13-1.47,4.69-9.06,8-12.51,9.15C176.08,228.33,169.51,220.78,171.12,213.86ZM288.29,88.56c-6.28-1.79-7.38-.34-8.77-4.3a44.28,44.28,0,0,0,11-10.57C298.15,72.56,298,88.1,288.29,88.56Zm46.42,23.75c-8.53-6.82-24.75-15.72-35-19.45,2.14-1,7.72-7.68,5-11.76C305.38,81.32,324.28,78,334.7,112.31ZM286.13,5.7c9.48,5.36,17.47,14.81,28.67,14.88,3.57,11.75,15.7,32.33,4.5,47.72a70.5,70.5,0,0,1-6.69-6.23c5.7-11.48,1.63-22.08-12.07-30C301.27,11.55,284,9.39,276.1,7c5.41,1.67,12.81,7.73,15.77,12.55-1.64-1.42-5.19-.72-9.08-2.88a60.56,60.56,0,0,0-23.13-7.68C276.45,3.42,276.67.34,286.13,5.7ZM8.25,121.6C1.57,85,22.05,54.92,41.46,51.46c1.62-.29,4.09-.46,6.59-.88C46,53,41.61,62.36,38.9,62.06c10.87,1.21,16.55-14.72,27.2-20.5,14.06-7.62,23.27-2.83,31.3-3.44-2.67,3-6.71,7.8-8.88,11.89-19.39-9.88-20-.08-31.76,16,4.39-3.36,8.56-4.85,9.2-3.68C56.22,74,34.36,118,8.25,121.6Zm40-21.72-4.34,2.47A233.25,233.25,0,0,0,62.13,75a17.18,17.18,0,0,1,2.42,1.95C57,85,57.16,85.63,48.25,99.88Zm-1,26.64L30.48,117a89.57,89.57,0,0,0,11.92-12.75A23,23,0,0,1,49.29,108C54.28,111.9,51.71,120.76,47.23,126.52Zm-21.44-5.88.54-.39L39.68,132a4.32,4.32,0,0,1-3.48-.9C34.81,129.95,29.24,124.36,25.79,120.64ZM7.66,194.53c4.54-3.6,22.37-17.24,28.08-17.24,4.88,0,7.54,6.85,8,13.61l-31.58,3.81,28.34,8.64C39,204.42,37.7,205.18,7.66,194.53ZM42.08,273,65,266.34c-8.15,3.29-21.18,7.63-25.4,9,1.6-5.47,8.77-28.71,13.6-31.72,5-3.12,12.38,2.37,16.46,8.49Zm68.7,23.13a132.57,132.57,0,0,1-40.12-28c14.08-8.84-8.8-38-20.59-27a137.56,137.56,0,0,1-13.85-33.6,12.72,12.72,0,0,0,2.37.29c14.23,0,11.5-40.24-6.83-33.47a136.67,136.67,0,0,1,5-38.53c12.85,3.48,27.74-25,13.51-31.92,3.79-6.49,9.54-13,14.31-18.73C64,91,60.12,97.52,58.09,103.26,61.5,96.67,67,92.81,71.94,88c-34.87,50.2-31.52,118.68,7.55,165,.51,11.11,12.32,31.06,36.84,39.07A12.26,12.26,0,0,0,110.78,296.14Zm5.49,43.29c-1.28-6.69-5.91-33.2-3-39.23s10.88-5.75,17-3.25l-12.51,38.69,21-30.66C139.15,307.26,140.06,308.24,116.27,339.43Zm76.41-35.17a129.78,129.78,0,0,1-49.63,1.57,11.41,11.41,0,0,0-3.53-7.72,74.85,74.85,0,0,0,16.61-.23s1.3-.42,3.34-1a120.78,120.78,0,0,0,38.81-1.54C191.06,298.87,191.67,301.32,192.68,304.27Zm26.12,29.61c-4.71-5.44-21.38-25.21-22.45-32.24,1-1.41,6.4-4,12.31-5.56l9.5,31.84,4-31.52C223.23,303,219.75,327.46,218.8,333.87Zm5.73-41.46c-2.35-2-6.21-2.11-9.3-1.84,11.39-4.11,23.11-6.93,34.64-15.69A132.62,132.62,0,0,1,224.53,292.41ZM295,275q2.17-.89,4.26-2c.62,1.52,1.22,3,1.75,4.29C300.39,277.08,298.09,276.21,295,275Zm41.64-10.9s17.63-10.75,14.65-28.67c-2.86,7.3-25.1,39.71-28.15,18.65-.62-4.3,7.15-13.87,11.71-16.66-18.86,5.3-29.4,32-53.13,30.27,7.5-3.59,10.14-13.23,10.34-15.05-5.55,5.26-23.23,21.45-48,12.68-7.59-2.69-11.5-10.52,2.1-25.63-20.21,9.64-29.33,33.77-47,33.3,10.3-16.73,29.77-50.47,50.69-51.37-17.66.34-39,10.89-50.26,23.7-19.06,21.71-18.26,27.06-37,32.64-14.19,4.23-23.67,3.92-35.65-4.5-14.82-10.41-23.07-23.19-22.78-34.33.49-18.64,9.24-39.68,21.16-51.26-12.44,7.24-28.16,22.33-32.53,36.3-8.36,26.7,13.23,44.91,15.35,47.68C94.79,263.12,87.8,256.49,84.74,241c-2.08-10.48,0-44,10.15-59.86C82.37,194.28,75.55,208.1,74.1,214.89c0,0-12.89-6.33-17-19.13-11.82-36.57,7.13-47.5,15.54-61.58-1.28,6.33,0,24.63,10,35.8-13-14.53,4.26-91.41,5.92-96.29,7.08-20.79,13.43-38.09,32.7-45.75,27.73-11,27.08-19.41,57.16-7.22a160.45,160.45,0,0,0,28.17,8.21c-2.74-.51-8.83-6.26-11.61-7.59,38.75,1,34.54-8,54.09-9.57,11.51-.93,22.59,2.91,31.52,7.76-6.61-1.41-14.1.12-18.07,5.66,15.06-6.66,32.44,6.36,31.35,6.48-18.55,2.15-15.25,15.17-16.16,16.8.79-1.4,17.7-15.49,27.58-8.35,8.23,6,7.82,7.88,3.63,17.34-4-1.69-9.59-1.28-13.56,0,.52-.45-.17-5.51.44-5.89-13.15,8.29-15.54,27.88-29.56,24.13-11.55-3.09-12-9.81-9.9-20.95,1.1-5.83,3.36-14.77,5.55-19.06-1.83,2.11-4.41,4.69-6.8,7.4-3.9,4.42-9.85-1.83-6.88-6.91-6.86,5.12-15.86,5.19-23.95,2.4,7.12,2.69,3.61,13.69-3.64,11.38-13-4.17-28.42-9-29-13,3.46,23.27,68.9,19.17,32.3,51.92C211.43,100,179.72,78.21,176.45,70.41a78.76,78.76,0,0,0,7.78,14c-5.63-.29-34-8.6-44.18-1.09,2.14-.55,5,.88,7.07,1.05-8.51,3-19.4,12-23.24,24.51,2-6.49,29.59-18.63,43.29-11.82-.81,11.71-.18,15.27,9.58,19.17,2.33.93-7.19,6.4-8.88,8.25-7.47,0-12.93-6.87-13.35-13.39-3.08,9.37-.53,19.42,4.42,23.24,0,0-17.13,21.48-28.73,20.9,18.65,2.81,25.48-6.92,34.23-14.93,10.84-9.93,8-15,55.42-30.55,0,0,4.39-17.61,28.22-23,21-4.77,33.2,5,43.08,13.56a37.8,37.8,0,0,0-13.3-1.53c-50.45,3.61-67.25,32.67-67.25,32.67a97.75,97.75,0,0,1,19.5-3.32c-13.67,12.89-45.8,7.65-64.34,19.67,8.15-2.62,16-1.85,25.31-1.77-2.34,7-3.52,11.37-4,19-5.43-2.81-2.78-12.58-2.78-12.58-2.85.15-17.75,9.32-22.61,14.94-21.12,24.4-22.19,64.44-14.55,82,6.8,15.65,18.45,16.44,28.09,4.23,5-6.29,9.43-11.44,14.33-17.74,7-9,23.31-18.83,46.59-31.91,13.65-7.67,93.71-33.74,122.68,10.58a41.32,41.32,0,0,0-9.18-21.3c.8-1.88,2.16-5.23,3.59-9.43,9.45,12.77,12.46,39.36,7.35,45.18,6.86-7.23,9.93-31.21-3.25-60,.51-2.47.92-5,1.19-7.49,3.68,4.19,14.12,17,14.84,30.22C374.49,212.13,364.82,252.18,336.66,264.12ZM204.18,98.9s-2.54,6.5-5.33,8.85c-2.08.47-11.53,3.4-13.76,4.4-4.15,1-9.91-2.61-12-5.22-2.63-3.35-1.13-10.5-1.13-10.5C191.31,100.38,194.08,98,204.18,98.9Z" style="fill:#010101"/><path d="M72.69,261.34" style="fill:#fff"/><line x1="221.58" y1="325.38" x2="214.66" y2="296.95" style="fill:#fdfcef"/></g></g></svg>