<svg xmlns="http://www.w3.org/2000/svg" viewBox="0 0 930.97 414.68"><defs><style>.cls-1{fill:#333}.cls-2{fill:#fcfbef}.cls-3{fill:#9f1f22}.cls-4{fill:#9e1f22}.cls-5{fill:#fff}</style></defs><title>Asset 1</title><g id="Layer_2" data-name="Layer 2"><g id="Layer_1-2" data-name="Layer 1"><path class="cls-1" d="M48.27 30.47c2.23-.13 11.27-.13 27.12-.13a2.62 2.62 0 0 1 0 5.24c-1.57 0-3.8 0-6.81-.13h-2.5a2.44 2.44 0 0 0-2.62 2.49c-.4 13.49-.4 27-.26 46.63.13 10.61.13 17.95.13 22a2.62 2.62 0 0 1-5.24 0c0-4.06 0-11.4-.13-22-.13-19.78-.13-33.14.26-46.5.13-1.7-.79-2.62-2.62-2.49-2.62 0-5 0-7.07.13a2.62 2.62 0 1 1-.26-5.24zm65.1 0c0 8.52-.13 21.48-.26 38.64s-.39 30.26-.39 38.9a2.62 2.62 0 1 1-5.24 0c0-8.12.13-20.56.39-37.59a2.34 2.34 0 0 0-2.75-2.62c-1.57.13-3.41.26-5.37.39s-3.8.13-5.11.26c-1.57 0-2.49 1-2.49 2.75.13 17.16.13 29.74.13 38a2.62 2.62 0 1 1-5.24 0c0-8.65 0-21.74-.13-39.17s-.13-30.39-.13-39.16a2.62 2.62 0 1 1 5.24 0c0 7.73 0 17.68.13 29.73a2.35 2.35 0 0 0 2.62 2.62c2.88-.13 7.33-.39 10.61-.52a2.48 2.48 0 0 0 2.49-2.75c.13-12.05.26-21.88.26-29.47a2.62 2.62 0 0 1 5.24 0zm14.94 30.26a2.35 2.35 0 0 0 2.62 2.62 2.92 2.92 0 0 1 1-.13c1.57-.13 2.62-.13 3.27-.13a2.62 2.62 0 0 1 .26 5.24c-.66 0-1.71 0-3.41.13-.78 0-1.31.13-2 .13-1.18 0-1.83.92-1.83 2.62 0 3.41 0 7.2.13 11.53.13 5.37.13 8.51.13 9.17v3.41c-.13 2.1-.13 3.93-.13 5.37 0 2.1 0 3.67.13 4.85v-2c0 1.7.4 2.62 1 2.62a41.18 41.18 0 0 0 5.77 0c1.7 0 3.67 0 6.16-.13h3.93a2.62 2.62 0 1 1 0 5.24h-3.93c-2.36.13-4.32.13-6 .13a47.63 47.63 0 0 1-6.16 0 11.17 11.17 0 0 1-2.23-.13c-.13 0-.4-.13-.52-.13a3.53 3.53 0 0 1-1.83-.79 3 3 0 0 1-.92-1.44 8.21 8.21 0 0 1-.26-.92c-.13-.52-.13-1.18-.26-2.1-.13-1.31-.13-3-.13-5.24 0-1.44 0-3.27.13-5.37v-3.37c0-.13 0-4.06-.13-11.92s-.13-14.54-.13-20c0-8 .13-14.28.52-18.86a63.43 63.43 0 0 1 .66-6.68c.13-1.7.65-3.67 2.09-4.58a10.57 10.57 0 0 1 5-.92c3.27-.13 7.59-.13 12.84.13 2.49.13 4.06.26 4.58.26a2.62 2.62 0 1 1 0 5.24c-.52 0-2.09-.13-4.72-.26-5.37-.26-9.43-.26-12.44-.13h-1c-.65 0-1.18 1.18-1.18 1.18a46.29 46.29 0 0 0-.66 6c-.26 4.58-.39 10.74-.39 18.6zM20.66 253.89v-114H0v-19h58.8q24.37 0 37.54 2.51a64.46 64.46 0 0 1 25.52 11.37q12.35 8.85 19.73 24.32t7.41 35.24q0 22.52-7.1 39.13t-18.64 24.81a71.09 71.09 0 0 1-27.46 11.42q-15.9 3.22-40.5 3.22H0v-19zm23 0h12q20.11 0 31.86-2.51a50.07 50.07 0 0 0 19.84-8.58q8.09-6.07 13.12-18.31t5-28.86q0-19.78-8.25-33.56t-21.09-18q-12.85-4.21-39.51-4.21h-13zM147 376.52v-74.25h-12.14v-12.38h33q13.6 0 20.39 1.64t12 8.29a24.66 24.66 0 0 1 5.2 15.62 25.14 25.14 0 0 1-3.1 12.46 19.87 19.87 0 0 1-9.08 8.4 24.4 24.4 0 0 1 12.71 9.43 26.27 26.27 0 0 1 4.45 15.06 27 27 0 0 1-3.31 13.31 24.11 24.11 0 0 1-8.79 9.25 34.88 34.88 0 0 1-12 4.41 108.32 108.32 0 0 1-17.76 1.14h-33.71v-12.38zm15-45.42h9.33q10.68 0 14.91-3.74t4.24-11q0-14.09-19.15-14.09H162zm0 45.42h5.62q11 0 16.16-1.1a14.15 14.15 0 0 0 8.36-5.2 16.41 16.41 0 0 0 3.24-10.5 15.38 15.38 0 0 0-3.1-9.79 14.77 14.77 0 0 0-8-5.27 55.63 55.63 0 0 0-13.77-1.32H162zm241.79 10.17v-74.07H391v-12.36h40.41v12.36h-12.14v74.07h30.25V353.1h13.92V399H391v-12.31zm81.38-32.63V280h-12.78v-12.37h40.41V280h-12.15v74.07h30.25v-33.6h13.92v45.95h-72.43v-12.36zm65.42-50.81q0-21.52 14.06-36t36.65-14.49q22.8 0 37.14 14.49t14.35 36.29q0 22.23-14.59 36.68t-37.11 14.45a52.39 52.39 0 0 1-26.38-6.85 43.86 43.86 0 0 1-18.07-19.1 56.93 56.93 0 0 1-6.05-25.47zm16.26.07q0 16.26 9.52 27.27t25 11q15.34 0 25.21-11.26a39.4 39.4 0 0 0 9.87-26.88q0-15.77-10-26.67a32.89 32.89 0 0 0-25.25-10.9q-15.13 0-24.71 10.72t-9.64 26.72zm177.69-2.1l12.85 7.17q-4.33 16.48-17.51 25.53a52.18 52.18 0 0 1-30.29 9.08q-22.44 0-36-14.56t-13.56-36q0-23.51 13.64-37.43t35.58-13.92q19.39 0 32.6 10.58v-9h12.78v31.75h-12.79a32 32 0 0 0-13.14-14.95 35.94 35.94 0 0 0-18.7-5.34q-14.77 0-24.25 10.65t-9.48 26.92q0 16.69 10.16 27.27t24.08 10.58a32.92 32.92 0 0 0 20.81-7.35q9.38-7.34 13.22-20.98zm31.74 52.09v-74.07h-12.36v-12.36h40v12.36h-12.73v74.07h11.36v12.36h-38.63v-12.36zm15.41-39.81l31.67-34.27h-11.29v-12.35h38.71v12.36h-10.51l-30.42 34.27 31.27 39.81h10.58v12.36h-40.12v-12.37h10.65zm71.66 75.29v-35.86h12.36v8.74q8.88 16.12 23.22 16.12a18 18 0 0 0 12.36-4.47 14.92 14.92 0 0 0 5-11.72q0-7-4.12-10.12t-15.55-6.14q-13.28-3.55-19.67-6.71a25.23 25.23 0 0 1-10.19-9 25 25 0 0 1-3.8-13.88q0-12.43 8.27-19.85t20.77-7.46a35.79 35.79 0 0 1 22 7.67v-6.6h12.07v30h-12.01v-6.89q-7.6-11.43-21-11.43-8.1 0-12.43 3.73a11.39 11.39 0 0 0-4.33 8.91 11.55 11.55 0 0 0 2.2 7 13 13 0 0 0 5.61 4.44 116.73 116.73 0 0 0 13.43 4q13.07 3.4 19 6.35a25.61 25.61 0 0 1 10.15 9.84 29.5 29.5 0 0 1 4.31 15.76 27.21 27.21 0 0 1-8.91 20.89q-8.91 8.24-22.05 8.24-13.49 0-24.29-9.73v8.17zm-267.69-215.7h53.48c.07 1.9.11 3.59.11 5.07q0 31-20.29 49.57t-53.58 18.6q-39.85 0-59.4-22.67T496.42 170q0-32.44 20-53.9t54.22-21.46q30.76 0 51.58 18.71V97h18.71v48.3h-18.74q-5.29-12.15-18.76-21.61a52.31 52.31 0 0 0-30.81-9.46q-24.1 0-38 16.28t-14 39.21q0 26.32 15.91 41.75a55.13 55.13 0 0 0 69.6 5.65q13.73-9.77 16.06-25.63h-26.53zm64.71-73.36v-26h26v22.51q0 11.63-1.8 18a18.42 18.42 0 0 1-7.66 10.36q-5.87 4-16.54 4.44v-11.1q12.68-1.9 12.68-15.64c0-.56 0-1.41-.11-2.54zM359.33 277.38Q336.8 254.62 301 254.62q-35.47 0-57.55 22.75t-22.08 56.55a89.4 89.4 0 0 0 9.48 40 68.89 68.89 0 0 0 28.39 30 82.28 82.28 0 0 0 41.44 10.76q35.36 0 58.28-22.7t22.92-57.61q-.02-34.24-22.55-56.99zm-57.72 118.69A61.42 61.42 0 1 1 363 334.65a61.42 61.42 0 0 1-61.39 61.42zm399.26-170.78v-53.37h18.39v13q13.21 24 34.56 24a26.72 26.72 0 0 0 18.39-6.66q7.5-6.66 7.5-17.44 0-10.46-6.13-15.06t-23.15-9.14q-19.76-5.28-29.28-10A37.54 37.54 0 0 1 706 137.2q-5.65-8.72-5.65-20.66Q700.34 98 712.65 87t30.91-11q17.65 0 32.76 11.41v-9.87h18v44.6h-18v-10.25q-11.31-17-31.18-17-12 0-18.5 5.55t-6.45 13.26a17.2 17.2 0 0 0 3.28 10.41 19.38 19.38 0 0 0 8.35 6.61q5.07 2.12 20 5.91 19.45 5.06 28.22 9.45t15.11 14.64a43.89 43.89 0 0 1 6.34 23.57q0 18.82-13.26 31.08t-32.83 12.25q-20.08 0-36.15-14.48v12.15z"/><path class="cls-1" d="M151.61 172q0-63.17 41.28-105.7t107.57-42.48q66.92 0 109 42.53t42.14 106.53q0 65.25-42.84 107.68T299.83 323q-42.11 0-77.45-20.12a128.75 128.75 0 0 1-53.06-56.08 167.1 167.1 0 0 1-17.71-74.8zm47.74.21q0 47.74 27.94 80.05t73.38 32.31q45 0 74-33t29-78.91q0-46.28-29.5-78.28T300 62.39q-44.41 0-72.55 31.48t-28.1 78.39zm155.78 154.4l-6.92-28.43"/><path class="cls-2" d="M169.54 132.76s-2.7 11.49-2.9 11.29l-2.9 33.17-24.87 17.68 28.67 11s15.79 38.66 15.49 38.66-11.49 33-11.49 33l30-8.69 35.37 27.37 7.19 2.6.8 14.89c-.3.3 2.08 23 2.08 23l1.41 6.55c-.05-.25 7.45-10.8 6.71-9.83s13.68-12.57 14.28-14c.76-1.81 7.29-10.49 5.2-10.79s6.17-2 4.8 0 19.48 1.8 19.48 1.8 21-3.16 20.08-2.78 9.59-1.42 9.59-1.42l8.69 11.09"/><path class="cls-2" d="M328.49 306.2s28.19 31.13 26.15 32.15 2.7-24.88 2.7-24.88l2.4-18s4.5-3 3-2.7 25.78-18 25.78-18h9.89s15.59-.6 14.39 0 7.79-.27 7.79-.27 5.1-.87 4.2 0 11.39 4.76 11.39 4.76-1.5-10.79-2.1-10.79 14.69-9.59 13.49-9.59 24 7.79 24 7.79 10.79-6.29 10.79-5.69 10.79-9 9.89-9 7.75-14.64 7.75-14.64l8.09-24.88s3.6-21.58 2.4-21.58-5.69-18.26-5.69-18.26l-11.39-13.81s-2.4-7-2.4-6.39-1-10-1-10l-3.3-8.76-3.9-7.81-1.38 5.88-2.59-3.27-8.84-11.61 3.2-5.89-12.56-23.38-8.89-6.89L435.17 70l9.29-8.19s7.09 8.59 7.59 8.59 3.7-2.7 3.7-2.7l4-8 .3-13.09-3.7-10.79-5.79-18.38s-9.39-2.8-9.69-2.8-15.19-7.59-15.19-7.59l-12.19-5.89-20.28 5.2-17.48 4.9-18.08 6.29-33.27.7-23-3.8-19.38-.5-10.89 4.5-26.46 11.88s-7.69 6.19-8.19 6.19-6.1-.52-6.46-.52-16-.7-16-.7-10.79 2.8-11.29 2.8-13.14 9.07-13.14 9.07-10 1.62-10.43 1.62S167 53.31 167 53.31l-10.47 8.29-10.19 16.19-4.6 13.39-1.7 15 .6 11.79 2 7.19s19.76-10.06 20.26-10 13.19-12.22 13.19-12.22l5.1-7.89s8.59-12.79 8.59-13.29 4.2-6.29 4.2-6.29 3.6-2 4-1.8 2.1 5.1 2.1 5.1l-2.2 2.9s-14.8 20.5-15 20.75a54.29 54.29 0 0 1-5.78.93l-5 4.5-10.39 10.49-3.1 1.5 5.28 7.49"/><path class="cls-3" d="M348 289.52c2.19.8 32.79-15.77 34.17-15s2 3.39 2 3.39l-17.79 12.2-6 5.13-15-2.74-11.19 5.3-5.79 3.9.1 4.5-16.55 2.27-21.32.83H276s-3-6-2.2-6.59-2.6-4.9-2.6-4.9l-5.59-2.5-9.59-2.2-7.39 2-3.8 3.6-16.32-8.94-15.26-10-11.79-10.89 5.39-5.79v-9.19l-5.39-7.49-7.89-5.59-6.49.7-3.7 2.2s-6-8.89-5.69-8.79-8.31-24.37-8.27-24.27-1.52-5.9-1.82-5.9 5.89 1.3 5.89 1.3l3.6-1.9 3.1-6.79s-1.7-14.29-1.4-14.29-6.49-7.39-6.49-7.39l-8.53.88s3.18-33.41 3.25-33.7 2.39-9.64 2.33-9.43 7.94 0 7.94 0l6.59-6.8 4-8.79-1-10.19-5.3-3.6 18.28-21.48 9.49 4.6L191 137.36l-5.89 41.36L198 222.58l25.48 41L251.26 286z"/><path class="cls-4" d="M304.72 94.5l-.9 10.19 3.9 7.29 9.09 3.4 17.78-3.6s6-5.89 6.19-6.19 2.5-7.59 2.5-7.59l-21.48-3.1zm110.69-16.19c-.5 0-3.7 7.49-3.7 7.49l7.59 4.7 9.79.8 5.39-6.49 1-7.39s-1.7-4.1-2.8-4.6a24.64 24.64 0 0 0-6.39-1.7c-1.9-.1-6.69 3.2-6.69 3.2z"/><path class="cls-1" d="M493 151.81c-.33-8.29-5.06-22.1-12.09-29.19.17 2.48.31 4.63.4 6.6-2.61-3.76-6.12-9-5.78-11.06 3.72-23.34-28.17-47.16-34.09-48.26a20.13 20.13 0 0 0 3.56-4.56c.51.76 6 8.58 6.71 8.1 18.93-12.59 6.55-39.07 1.27-57.15-.21-.74-.92-1.69-1.77-1.66C436.5 15.22 425.07 4 416.33.73S396.4 6.09 385.67 8a52.72 52.72 0 0 0-17.44 3.72c-7.78 3-11 5.42-27.87 5.87-9 .24-18.57.07-27.49-1.54-29.06-10.91-34.72-.83-60 9.25-6.27 2.5-13.23 5-18.45 9.28-19.21-7.08-42.42 7.31-45 9.86-4 2.22-13.87 2.52-20.37 5.22-14.32 5.95-27.4 26.7-29.81 51.33H139l.17.21a81.69 81.69 0 0 0 1.31 24.46c.15.71 1 1.73 1.78 1.66a35.81 35.81 0 0 0 14.43-4.58c1.17 1.17 3.62 3.64 3.38 3.51 2.65 3 5.06 5.55 6.8 7.15a141.67 141.67 0 0 0-5.5 43.11c-8.83 4.7-19.54 13.1-27.16 19.37 8.74 3.17 22 7.87 31.12 10.42a140.12 140.12 0 0 0 15.91 38.86c-5.08 8.47-10.47 26.19-13.22 36.24 9.27-3 23.07-7.54 32.29-11.25a137.29 137.29 0 0 0 42.63 30.19c-2.38 9.91 4.47 38.09 5.94 45.4.91-1.17 23.55-27.68 27.36-35.32a135 135 0 0 0 52.61-1.8c4.61 8.54 20.64 27.53 27 34.86.9-5.65.24.25 5.53-47.3 4.54-3.11 22.28-12.93 26.21-16.94a8.34 8.34 0 0 1 3.92-1.67c9 2.44 20.51 2.12 29.19.17 7.31 1.08 5.83 1.32 21.83 6.44-1.45-3.73-2.79-7.21-5.3-13.29 2.74-1.55 7.85-4.2 7.85-4.2 6.63 4.81 30.95 16.7 53.35-17.48 7.63-11.65 12.7-28 14-42 2.7-27.68-2.69-26.59-19.43-55.4zm-31.11 25.4c15-11.5 23.74-29.57 21-49.65 4.14 6.49 10 21.78 5.61 39.82-1.25 5.1-2.55 13.13-9.74 21-1.77-.83-8.46-4.1-12-5.12 5-3.11 11.9-9.79 16.58-24 .02.03-11.25 16.06-21.46 17.96zm19.49-43.33c-.12 4.74.38 12.25-4.49 17.68-6.88-3.18-17-11.67-21.45-19.5 1.13 7.51 4.78 17.8 9.54 24.25a38.53 38.53 0 0 0-12.61-6c5 4.3 10.19 9 13.13 15a73.4 73.4 0 0 1-7.79 8.07 42.88 42.88 0 0 0-5.8-6.92 43.91 43.91 0 0 1-12.46 14.78 114.68 114.68 0 0 1-11.71-17.07c-.45-.3-3.74 6.32-4.1 6.67-.58-.79 3.35-22.37-2.48-29.72 3.75-2.13 17.78-11 16.4-20.92 5.46-.17 18.71 4.86 21.1 9.47a59.54 59.54 0 0 0-20.76-23.57c11.78 2.75 30.1 8.67 43.47 27.79zm-35.5 47s4-7.17 5.63-10.65c1.78 1.08 6.34 9.58 6.82 11.15.58 1.91-7.59 1.84-9 .69.8-.3 1.82-8 1.82-8zm-24.88 1.4c2.16-4.28 5-10.18 6.78-13.57.23-1.26 4.24 8 7.33 12.67-1.89 1.29-8 2.85-9.14.9.62-1.67 2-8.78 2-8.78s-5.15 5.94-6.97 8.78zm-2.43-46.68c-4.85-2.32-2.42-13-6.45-16.66-2.39 6.75.36 16.63-3.38 18.8-3.41-5.68-6-21-18.46-16.13 16.14 7.82 5.85 15.58 2.72 16-9.8-3.56-13.56-14.3-14.35-18.31 1.88-4.32 11.53-22.24 42.9-14.88-13.31-1.35-29 2.73-29.76 6.87 9.38-4.78 19.49-5.74 31.3-3.93a19.19 19.19 0 0 1 9.53 3.66c2.12 4.64.53 17.59-4.57 20-6-2.22-6.92-12.4-1.74-16.13-10.24-1.97-6.9 17.98-7.73 20.71zm-20.9 48.77c1.41-2.68 5.05-8.56 5.7-10.06 2 2.45 4.13 7.61 5.38 9.38a10.27 10.27 0 0 1-7.56 2.28c.45-1.14 2.32-9.3 2.32-9.3s-4.61 6.2-5.83 7.7zm5.07-13.77c-2.13 5.38-6.43 10.41-9.69 15.22-7.5-4.44-15.55-10.29-20.56-17.39a44.46 44.46 0 0 0-6.32 21.66c-.81-.06-1.6-.11-2.36-.15a67.74 67.74 0 0 1-16.7-12.94c4-10.81 9.91-16.76 19.8-23.31-4.84 2.62-10.14 4.12-14.66 7.58-4.12 3.15-6.17 7.49-9.54 11A93 93 0 0 1 327.66 146c12.05-.08 26.74-1.78 47.72-13.16 1.19 5 20.57 11.43 38.35 13.31 4.25 11.08 2.42 26.51-1.62 31.15-1.16-1.56-8.11-5.25-9.36-6.7zm-32.53 21.23c-2.2-5.54-.82-14.47 2.85-19.81 4 5.23 8.63 11.25 14 15-2.51 4.88-12.6 5.9-13.3 5.48 0 0-1.88-11.28-.92-17-3.25 5.5-3.03 12.43-2.62 16.32zm-27.8 20.67c-8.52-4.79-18.91-19.82-18.12-49.95a53 53 0 0 1 2.25-15.07c8.31 23.54 20.16 37 37.4 47.88 1.93 4.08-4.47 9.57-11.34 13.26-5-2.27-21.34-12.08-25.58-44.76-2.08 14.04 3.11 35.61 15.39 48.64zm-35.78-41.92a25.67 25.67 0 0 1 7.47 5.18c2.89 2.19.7 5.71.16 6.92-2 4.63-5.59 6.89-7.77 12.26-3.77-6.27-9.19-13.05-9.3-20.7 1.31 4.18 3.51 7.72 8 15.46-1.36-6.38-1.52-13.37 1.44-19.12zm2.26 40.11a2.52 2.52 0 0 1-1.14-2.93c.49-2.13 2.54-14.87 10.79-23.39.93 4.81 11.29 22.69 13.34 26.38a19.18 19.18 0 0 1-14.24 3.64 30.32 30.32 0 0 1 .83-23.86 29.49 29.49 0 0 0-9.58 20.16zm-5.22-10.61c.79 2.46.73 7.56-1.67 8.62-3.87 1.71-8.4-1.09-11.32-5.15a47 47 0 0 1 2.68-18.4 24 24 0 0 0-4.12 4c1.12-3 2.55-6.13 3.5-8.89 4 7.02 8.17 11.18 10.93 19.82zM289.27 211c4.22 5.79 8.09 5.34 9.39 3.59-1.22 3.39 4.38 11.22 5.1 12.06-12.47-.01-15.44-7.84-14.49-15.65zm21.63 31.75a19.09 19.09 0 0 1-11.33 7.66c-13.43 3.61-18.21-11.7-17.69-24.62 1.51 17.38 16.48 22.21 29.02 16.95zm-5.56-28.88c7.35 6.31 17.56 7.37 27 2.13-1.47 4.69-9.06 8-12.51 9.15-9.54 3.18-16.1-4.37-14.49-11.29zM422.5 88.56c-6.28-1.79-7.38-.34-8.77-4.3a44.28 44.28 0 0 0 11-10.57c7.63-1.13 7.51 14.41-2.23 14.87zm46.42 23.75c-8.53-6.82-24.75-15.72-35-19.45 2.14-1 7.72-7.68 5-11.76.68.22 19.58-3.1 30 31.21zM420.34 5.7c9.48 5.36 17.47 14.81 28.67 14.88 3.57 11.75 15.7 32.33 4.5 47.72a70.5 70.5 0 0 1-6.69-6.23c5.7-11.48 1.63-22.08-12.07-30 .72-20.53-16.55-22.7-24.45-25.13 5.41 1.67 12.81 7.73 15.77 12.55-1.64-1.42-5.19-.72-9.08-2.88a60.56 60.56 0 0 0-23.13-7.68c16.81-5.51 17.02-8.59 26.48-3.23zM142.47 121.6c-6.69-36.59 13.8-66.68 33.21-70.14 1.62-.29 4.09-.46 6.59-.88-2 2.41-6.44 11.78-9.15 11.48 10.87 1.21 16.55-14.72 27.2-20.5 14.06-7.62 23.27-2.83 31.3-3.44-2.67 3-6.71 7.8-8.88 11.89-19.39-9.88-20-.08-31.76 16 4.39-3.36 8.56-4.85 9.2-3.68C190.43 74 168.57 118 142.47 121.6zm40-21.72l-4.34 2.47A233.25 233.25 0 0 0 196.35 75a17.18 17.18 0 0 1 2.42 1.95c-7.51 8.05-7.4 8.68-16.3 22.93zm-1 26.64L164.7 117a89.57 89.57 0 0 0 11.92-12.75 23 23 0 0 1 6.89 3.72c4.99 3.93 2.42 12.79-2.07 18.55zM160 120.64l.54-.39L173.9 132a4.32 4.32 0 0 1-3.48-.9c-1.42-1.15-6.96-6.74-10.42-10.46zm-18.12 73.89c4.54-3.6 22.37-17.24 28.08-17.24 4.88 0 7.54 6.85 8 13.61l-31.58 3.81 28.34 8.64c-1.53 1.07-2.81 1.83-32.84-8.82zM176.29 273l22.88-6.67c-8.15 3.29-21.18 7.63-25.4 9 1.6-5.47 8.77-28.71 13.6-31.72 5-3.12 12.38 2.37 16.46 8.49zM245 296.14a132.57 132.57 0 0 1-40.12-28c14.08-8.84-8.8-38-20.59-27a137.56 137.56 0 0 1-13.85-33.6 12.72 12.72 0 0 0 2.37.29c14.23 0 11.5-40.24-6.83-33.47a136.67 136.67 0 0 1 5-38.53c12.85 3.48 27.74-25 13.51-31.92 3.79-6.49 9.54-13 14.31-18.73-.55 5.82-4.47 12.34-6.5 18.08 3.41-6.59 8.91-10.45 13.86-15.22-34.87 50.2-31.52 118.68 7.55 165 .51 11.11 12.32 31.06 36.84 39.07a12.26 12.26 0 0 0-5.55 4.03zm5.49 43.29c-1.28-6.69-5.91-33.2-3-39.23s10.88-5.75 17-3.25l-12.51 38.69 21-30.66c.38 2.28 1.3 3.26-22.5 34.45zm76.41-35.17a129.78 129.78 0 0 1-49.63 1.57 11.41 11.41 0 0 0-3.53-7.72 74.85 74.85 0 0 0 16.61-.23s1.3-.42 3.34-1a120.78 120.78 0 0 0 38.81-1.54c-7.23 3.53-6.62 5.98-5.6 8.93zm26.1 29.61c-4.71-5.44-21.38-25.21-22.45-32.24 1-1.41 6.4-4 12.31-5.56l9.5 31.84 4-31.52c1.08 6.61-2.36 31.07-3.36 37.48zm5.73-41.46c-2.35-2-6.21-2.11-9.3-1.84 11.39-4.11 23.11-6.93 34.64-15.69a132.62 132.62 0 0 1-25.32 17.53zm70.5-17.4q2.17-.89 4.26-2c.62 1.52 1.22 3 1.75 4.29-.63-.22-2.94-1.09-6-2.3zm41.64-10.9s17.63-10.75 14.65-28.67c-2.86 7.3-25.1 39.71-28.15 18.65-.62-4.3 7.15-13.87 11.71-16.66-18.86 5.3-29.4 32-53.13 30.27 7.5-3.59 10.14-13.23 10.34-15.05-5.55 5.26-23.23 21.45-48 12.68-7.59-2.69-11.5-10.52 2.1-25.63-20.21 9.64-29.33 33.77-47 33.3 10.3-16.73 29.77-50.47 50.69-51.37-17.66.34-39 10.89-50.26 23.7-19.06 21.71-18.26 27.06-37 32.64-14.19 4.23-23.67 3.92-35.65-4.5-14.82-10.41-23.07-23.19-22.78-34.33.49-18.64 9.24-39.68 21.16-51.26-12.44 7.24-28.16 22.33-32.53 36.3-8.36 26.7 13.23 44.91 15.35 47.68C229 263.12 222 256.49 219 241c-2.08-10.48 0-44 10.15-59.86-12.52 13.11-19.34 26.93-20.79 33.73 0 0-12.89-6.33-17-19.13-11.82-36.57 7.13-47.5 15.54-61.58-1.28 6.33 0 24.63 10 35.8-13-14.53 4.26-91.41 5.92-96.29 7.08-20.79 13.43-38.09 32.7-45.75 27.73-11 27.08-19.41 57.16-7.22a160.45 160.45 0 0 0 28.17 8.21c-2.74-.51-8.83-6.26-11.61-7.59 38.75 1 34.54-8 54.09-9.57 11.51-.93 22.59 2.91 31.52 7.76-6.61-1.41-14.1.12-18.07 5.66 15.06-6.66 32.44 6.36 31.35 6.48-18.55 2.15-15.25 15.17-16.16 16.8.79-1.4 17.7-15.49 27.58-8.35 8.23 6 7.82 7.88 3.63 17.34-4-1.69-9.59-1.28-13.56 0 .52-.45-.17-5.51.44-5.89-13.15 8.29-15.54 27.88-29.56 24.13-11.55-3.09-12-9.81-9.9-20.95 1.1-5.83 3.36-14.77 5.55-19.06-1.83 2.11-4.41 4.69-6.8 7.4-3.9 4.42-9.85-1.83-6.88-6.91-6.86 5.12-15.86 5.19-23.95 2.4 7.12 2.69 3.61 13.69-3.64 11.38-13-4.17-28.42-9-29-13 3.46 23.27 68.9 19.17 32.3 51.92-12.54 11.14-44.25-10.65-47.52-18.45a78.76 78.76 0 0 0 7.78 14c-5.63-.29-34-8.6-44.18-1.09 2.14-.55 5 .88 7.07 1.05-8.51 3-19.4 12-23.24 24.51 2-6.49 29.59-18.63 43.29-11.82-.81 11.71-.18 15.27 9.58 19.17 2.33.93-7.19 6.4-8.88 8.25-7.47 0-12.93-6.87-13.35-13.39-3.08 9.37-.53 19.42 4.42 23.24 0 0-17.13 21.48-28.73 20.9 18.65 2.81 25.48-6.92 34.23-14.93 10.84-9.93 8-15 55.42-30.55 0 0 4.39-17.61 28.22-23 21-4.77 33.2 5 43.08 13.56a37.8 37.8 0 0 0-13.3-1.53c-50.45 3.61-67.25 32.67-67.25 32.67a97.75 97.75 0 0 1 19.5-3.32c-13.67 12.89-45.8 7.65-64.34 19.67 8.15-2.62 16-1.85 25.31-1.77-2.34 7-3.52 11.37-4 19-5.43-2.81-2.78-12.58-2.78-12.58-2.85.15-17.75 9.32-22.61 14.94-21.12 24.4-22.19 64.44-14.55 82 6.8 15.65 18.45 16.44 28.09 4.23 5-6.29 9.43-11.44 14.33-17.74 7-9 23.31-18.83 46.59-31.91 13.64-7.65 93.72-33.72 122.64 10.6a41.32 41.32 0 0 0-9.18-21.3c.8-1.88 2.16-5.23 3.59-9.43 9.45 12.77 12.46 39.36 7.35 45.18 6.86-7.23 9.93-31.21-3.25-60 .51-2.47.92-5 1.19-7.49 3.68 4.19 14.12 17 14.84 30.22 1.17 20.38-8.54 60.43-36.66 72.37zM338.4 98.9s-2.54 6.5-5.33 8.85c-2.08.47-11.53 3.4-13.76 4.4-4.15 1-9.91-2.61-12-5.22-2.63-3.35-1.13-10.5-1.13-10.5 19.34 3.95 22.12 1.57 32.22 2.47z"/></g></g></svg>
